<svg width="54" height="40" viewBox="0 0 54 40" fill="none" xmlns="http://www.w3.org/2000/svg">
<path d="M0.308777 5.69824C0.308777 4.43319 0.744591 3.45277 1.61623 2.75699C2.50371 2.0454 3.83494 1.6896 5.60991 1.6896C6.78265 1.6896 7.78107 1.8003 8.60516 2.02168V5.295C7.71768 5.02618 6.83812 4.89177 5.96648 4.89177C5.11069 4.89177 4.55602 4.99455 4.30245 5.20013C4.04888 5.38988 3.9221 5.67452 3.9221 6.05404V14.0239C3.9221 14.7829 4.5164 15.1624 5.70499 15.1624C6.90944 15.1624 7.89993 15.0438 8.67648 14.8066V18.0088C7.82069 18.246 6.78265 18.3646 5.56236 18.3646C3.78739 18.3646 2.46409 18.0167 1.59246 17.3209C0.736669 16.6251 0.308777 15.6447 0.308777 14.3797V5.69824Z" fill="#1F1B13"/>
<path d="M15.6205 7.95162C15.6205 7.35072 15.2877 7.05026 14.622 7.05026C13.9564 7.05026 13.6236 7.35072 13.6236 7.95162V14.5457C13.6236 15.1466 13.9564 15.4471 14.622 15.4471C15.2877 15.4471 15.6205 15.1466 15.6205 14.5457V7.95162ZM10.1054 7.83302C10.1054 6.63122 10.4778 5.69824 11.2227 5.03409C11.9834 4.35412 13.1165 4.01414 14.622 4.01414C16.1276 4.01414 17.2528 4.35412 17.9977 5.03409C18.7584 5.69824 19.1387 6.63122 19.1387 7.83302V14.6643C19.1387 15.8661 18.7584 16.807 17.9977 17.487C17.2528 18.1511 16.1276 18.4832 14.622 18.4832C13.1165 18.4832 11.9834 18.1511 11.2227 17.487C10.4778 16.807 10.1054 15.8661 10.1054 14.6643V7.83302Z" fill="#1F1B13"/>
<path d="M21.4492 4.0853C21.4492 1.41287 22.8597 0.0766602 25.6806 0.0766602C26.0451 0.0766602 26.4809 0.116193 26.9881 0.195259V2.94675C26.7345 2.91512 26.4968 2.89931 26.2749 2.89931C25.4667 2.89931 25.0625 3.27883 25.0625 4.03786V4.25134H26.9881V7.05026H25.0625V18.246H21.4492V7.05026H20.0942V4.25134H21.4492V4.0853Z" fill="#1F1B13"/>
<path d="M28.4601 4.0853C28.4601 1.41287 29.8705 0.0766602 32.6915 0.0766602C33.056 0.0766602 33.4918 0.116193 33.9989 0.195259V2.94675C33.7453 2.91512 33.5076 2.89931 33.2858 2.89931C32.4775 2.89931 32.0734 3.27883 32.0734 4.03786V4.25134H33.9989V7.05026H32.0734V18.246H28.4601V7.05026H27.1051V4.25134H28.4601V4.0853Z" fill="#1F1B13"/>
<path d="M34.8291 14.2611V7.83302C34.8291 6.63122 35.2015 5.69824 35.9464 5.03409C36.6912 4.35412 37.8164 4.01414 39.322 4.01414C42.2221 4.01414 43.6722 5.2871 43.6722 7.83302V12.6481H38.276V13.9764C38.276 14.4508 38.4028 14.7908 38.6563 14.9964C38.9258 15.1861 39.5042 15.281 40.3917 15.281C41.295 15.281 42.2776 15.1229 43.3394 14.8066V17.9376C42.2301 18.2381 41.0415 18.3883 39.7736 18.3883C36.4773 18.3883 34.8291 17.0126 34.8291 14.2611ZM38.276 9.92035H40.3679V7.88046C40.3679 7.27956 40.0193 6.97911 39.322 6.97911C38.6246 6.97911 38.276 7.27956 38.276 7.88046V9.92035Z" fill="#1F1B13"/>
<path d="M45.09 14.2611V7.83302C45.09 6.63122 45.4624 5.69824 46.2073 5.03409C46.9521 4.35412 48.0773 4.01414 49.5829 4.01414C52.483 4.01414 53.9331 5.2871 53.9331 7.83302V12.6481H48.5369V13.9764C48.5369 14.4508 48.6637 14.7908 48.9173 14.9964C49.1867 15.1861 49.7651 15.281 50.6526 15.281C51.5559 15.281 52.5385 15.1229 53.6003 14.8066V17.9376C52.491 18.2381 51.3024 18.3883 50.0345 18.3883C46.7382 18.3883 45.09 17.0126 45.09 14.2611ZM48.5369 9.92035H50.6288V7.88046C50.6288 7.27956 50.2802 6.97911 49.5829 6.97911C48.8856 6.97911 48.5369 7.27956 48.5369 7.88046V9.92035Z" fill="#1F1B13"/>
<path d="M6.03048 26.9797C6.03048 25.812 5.41282 25.2281 4.1775 25.2281H2.20748V35.874H4.1775C5.41282 35.874 6.03048 35.2772 6.03048 34.0835V26.9797ZM0.822613 24.0214H4.25552C5.29579 24.0214 6.0825 24.2874 6.61564 24.8194C7.14878 25.3514 7.41535 26.065 7.41535 26.9603V34.1224C7.41535 35.0436 7.15528 35.7702 6.63514 36.3022C6.11501 36.8342 5.3348 37.1001 4.29453 37.1001H0.822613V24.0214Z" fill="#1F1B13"/>
<path d="M9.6944 34.2781V28.8676C9.6944 27.9463 9.95447 27.2133 10.4746 26.6683C11.0077 26.1104 11.8075 25.8314 12.8737 25.8314C13.94 25.8314 14.7267 26.1104 15.2339 26.6683C15.754 27.2133 16.0141 27.9463 16.0141 28.8676V32.254H11.0598V34.2197C11.0598 34.8036 11.2418 35.2382 11.6059 35.5237C11.97 35.8091 12.5356 35.9519 13.3028 35.9519C14.0701 35.9519 14.8633 35.8351 15.6825 35.6015V36.8861C15.0323 37.0936 14.2586 37.1975 13.3614 37.1975C10.9167 37.1975 9.6944 36.2243 9.6944 34.2781ZM11.0598 31.1057H14.6877V28.8676C14.6877 27.6479 14.0831 27.0381 12.8737 27.0381C11.6644 27.0381 11.0598 27.6479 11.0598 28.8676V31.1057Z" fill="#1F1B13"/>
<path d="M18.3848 23.0872H19.7697V37.1001H18.3848V23.0872Z" fill="#1F1B13"/>
<path d="M23.1438 24.7805C22.5847 24.7805 22.3051 24.482 22.3051 23.8852C22.3051 23.2884 22.5847 22.9899 23.1438 22.9899C23.716 22.9899 24.002 23.2884 24.002 23.8852C24.002 24.482 23.716 24.7805 23.1438 24.7805ZM22.4611 26.1039H23.846V37.1001H22.4611V26.1039Z" fill="#1F1B13"/>
<path d="M30.9846 26.0261H32.3889L29.9313 37.1001H27.9808L25.5231 26.0261H26.947L28.0198 31.1057L28.9755 36.127C29.3656 33.9732 30.0353 30.6062 30.9846 26.0261Z" fill="#1F1B13"/>
<path d="M33.8663 34.2781V28.8676C33.8663 27.9463 34.1264 27.2133 34.6465 26.6683C35.1796 26.1104 35.9793 25.8314 37.0456 25.8314C38.1119 25.8314 38.8986 26.1104 39.4057 26.6683C39.9259 27.2133 40.186 27.9463 40.186 28.8676V32.254H35.2316V34.2197C35.2316 34.8036 35.4137 35.2382 35.7778 35.5237C36.1419 35.8091 36.7075 35.9519 37.4747 35.9519C38.2419 35.9519 39.0351 35.8351 39.8544 35.6015V36.8861C39.2042 37.0936 38.4305 37.1975 37.5332 37.1975C35.0886 37.1975 33.8663 36.2243 33.8663 34.2781ZM35.2316 31.1057H38.8596V28.8676C38.8596 27.6479 38.2549 27.0381 37.0456 27.0381C35.8363 27.0381 35.2316 27.6479 35.2316 28.8676V31.1057Z" fill="#1F1B13"/>
<path d="M46.1457 25.9677H46.6333V27.2911H45.9701C45.502 27.2911 45.0794 27.4144 44.7023 27.6609C44.5853 27.7387 44.3317 27.9139 43.9416 28.1864V37.1001H42.5567V26.0261H43.8831V26.8629C43.9221 26.837 44.0196 26.7656 44.1757 26.6489C44.3447 26.5321 44.4422 26.4672 44.4682 26.4542C44.5072 26.4283 44.5918 26.3764 44.7218 26.2985C44.8648 26.2207 44.9689 26.1753 45.0339 26.1623C45.1119 26.1363 45.2159 26.1039 45.346 26.065C45.541 26.0001 45.8076 25.9677 46.1457 25.9677Z" fill="#1F1B13"/>
<path d="M52.5668 26.0261H53.9517L50.9089 40H49.5825L50.1872 37.1001H49.5045L47.0859 26.0261H48.4903L49.6606 31.5339L50.5188 36.127C50.7789 34.596 51.0649 33.0649 51.377 31.5339L52.5668 26.0261Z" fill="#1F1B13"/>
</svg>
